<?xml version="1.0" standalone="no"?><!DOCTYPE svg PUBLIC "-//W3C//DTD SVG 1.1//EN" "http://www.w3.org/Graphics/SVG/1.1/DTD/svg11.dtd"><svg t="1754111619925" class="icon" viewBox="0 0 1024 1024" version="1.1" xmlns="http://www.w3.org/2000/svg" p-id="33108" data-spm-anchor-id="a313x.search_index.0.i31.470e3a812pTlmd" xmlns:xlink="http://www.w3.org/1999/xlink" width="256" height="256"><path d="M512 0C229.376 0 0 229.376 0 512s229.376 512 512 512 512-229.376 512-512S794.624 0 512 0z" fill="#7b9893" p-id="33109" data-spm-anchor-id="a313x.search_index.0.i32.470e3a812pTlmd" class="selected"></path><path d="M512 40.96c260.096 0 471.04 210.944 471.04 471.04S772.096 983.04 512 983.04 40.96 772.096 40.96 512 251.904 40.96 512 40.96" fill="#7b9893" p-id="33110" data-spm-anchor-id="a313x.search_index.0.i30.470e3a812pTlmd" class=""></path><path d="M512 147.456l180.224 180.224H331.776zM876.544 512L696.32 692.224V331.776zM147.456 512l180.224-180.224v360.448zM512 876.544L331.776 696.32h360.448z" fill="#3E5A5C" p-id="33111"></path></svg>